<svg class="svg-icon" style="width: 1rem;height: 1rem;vertical-align: middle;fill: currentColor;overflow: hidden;" viewBox="0 0 1024 1024" version="1.1" xmlns="http://www.w3.org/2000/svg"><path d="M515.4816 897.0752c-210.688 0-382.1568-171.4176-382.1568-382.1568 0-210.688 171.4176-382.1568 382.1568-382.1568 210.7392 0 382.1568 171.4176 382.1568 382.1568-0.0512 210.7392-171.4688 382.1568-382.1568 382.1568z m0-723.3024c-188.1088 0-341.1968 153.0368-341.1968 341.1968s153.0368 341.1968 341.1968 341.1968 341.1968-153.0368 341.1968-341.1968-153.088-341.1968-341.1968-341.1968z" fill="#000000" /><path d="M515.4816 715.1616c-11.3152 0-20.48-9.1648-20.48-20.48V349.952c0-11.3152 9.1648-20.48 20.48-20.48s20.48 9.1648 20.48 20.48v344.7296c0 11.264-9.216 20.48-20.48 20.48z" fill="#000000" /><path d="M709.888 535.4496H334.2848c-11.3152 0-20.48-9.1648-20.48-20.48s9.1648-20.48 20.48-20.48h375.6544a20.47488 20.47488 0 1 1-0.0512 40.96z" fill="#000000" /></svg>